<?xml version="1.0" standalone="no"?>
<!DOCTYPE svg PUBLIC "-//W3C//DTD SVG 20010904//EN"
 "http://www.w3.org/TR/2001/REC-SVG-20010904/DTD/svg10.dtd">
<svg version="1.0" xmlns="http://www.w3.org/2000/svg"
 width="112.000000pt" height="253.000000pt" viewBox="0 0 112.000000 253.000000"
 preserveAspectRatio="xMidYMid meet">

<g transform="translate(0.000000,253.000000) scale(0.100000,-0.100000)"
fill="#000000" stroke="none">
<path d="M70 1245 l0 -1245 35 0 35 0 0 1245 0 1245 -35 0 -35 0 0 -1245z"/>
<path d="M273 2313 c11 -3 17 -14 17 -34 0 -26 -3 -29 -21 -24 -16 5 -20 3
-17 -6 3 -8 13 -14 24 -14 15 0 20 8 22 43 3 38 1 42 -20 41 -17 -1 -18 -3 -5
-6z"/>
<path d="M533 2304 c-3 -9 3 -21 16 -30 24 -17 20 -37 -6 -27 -11 4 -14 3 -9
-5 10 -16 31 -15 46 2 9 12 7 18 -9 33 -27 23 -27 36 0 28 15 -5 19 -4 15 4
-11 16 -46 13 -53 -5z"/>
<path d="M931 2298 c-5 -13 -11 -34 -15 -48 -6 -23 -6 -23 7 -7 17 20 36 22
43 4 6 -17 61 -20 70 -5 4 6 0 16 -9 23 -22 16 -22 26 0 18 11 -4 14 -3 9 5
-4 7 -13 12 -21 12 -22 0 -29 -22 -12 -35 23 -16 21 -24 -3 -18 -11 3 -24 20
-30 39 -13 39 -27 43 -39 12z m23 -13 c3 -8 1 -15 -4 -15 -6 0 -10 7 -10 15 0
8 2 15 4 15 2 0 6 -7 10 -15z"/>
<path d="M836 2303 c-7 -7 4 -55 15 -67 5 -5 12 -6 16 -2 4 4 1 11 -7 16 -12
8 -13 13 -3 29 10 15 9 20 -1 24 -8 3 -17 3 -20 0z"/>
<path d="M324 2288 c-5 -8 -2 -9 9 -5 9 3 19 2 22 -2 2 -5 -5 -11 -16 -14 -29
-8 -18 -32 14 -32 23 -1 26 2 20 25 -3 14 -8 28 -10 33 -6 11 -31 8 -39 -5z
m36 -32 c0 -11 -19 -15 -25 -6 -3 5 1 10 9 10 9 0 16 -2 16 -4z"/>
<path d="M390 2291 c0 -19 20 -61 29 -61 5 0 14 14 20 31 15 44 14 48 -9 19
-15 -20 -20 -21 -20 -8 0 9 -4 20 -10 23 -5 3 -10 2 -10 -4z"/>
<path d="M464 2288 c-5 -8 -2 -9 9 -5 10 3 17 2 17 -3 0 -6 -7 -10 -15 -10 -8
0 -15 -9 -15 -19 0 -15 7 -19 30 -19 27 1 29 4 23 27 -3 14 -8 29 -10 34 -6
11 -31 8 -39 -5z m31 -38 c-3 -5 -10 -10 -16 -10 -5 0 -9 5 -9 10 0 6 7 10 16
10 8 0 12 -4 9 -10z"/>
<path d="M604 2286 c-10 -26 1 -51 24 -54 12 -2 22 1 22 6 0 5 -8 9 -17 8 -12
-1 -18 6 -18 19 0 14 6 19 19 17 11 -2 15 1 11 7 -9 16 -35 13 -41 -3z"/>
<path d="M664 2283 c3 -8 6 -24 6 -35 0 -12 2 -19 4 -17 2 2 4 6 3 9 0 3 5 15
12 28 14 27 31 20 31 -14 0 -13 5 -24 11 -24 6 0 9 14 7 32 -3 30 -6 32 -41
34 -31 2 -37 -1 -33 -13z"/>
<path d="M754 2283 c3 -8 6 -29 6 -46 0 -18 4 -27 8 -21 4 7 16 13 27 15 15 3
20 12 20 34 0 27 -3 30 -33 32 -26 1 -32 -2 -28 -14z m50 -11 c2 -4 1 -14 -4
-22 -7 -11 -12 -12 -21 -3 -6 6 -8 16 -5 22 8 13 23 14 30 3z"/>
<path d="M1054 2288 c-4 -6 0 -16 9 -23 22 -16 22 -26 0 -18 -11 4 -14 3 -9
-5 4 -7 13 -12 21 -12 22 0 29 22 12 35 -22 16 -22 26 0 18 11 -4 14 -3 9 5
-9 15 -33 15 -42 0z"/>
<path d="M1111 2264 c0 -11 3 -14 6 -6 3 7 2 16 -1 19 -3 4 -6 -2 -5 -13z"/>
<path d="M1062 1785 c-65 -56 -91 -121 -102 -257 -7 -85 -19 -147 -46 -234
-73 -234 -76 -250 -76 -384 0 -135 28 -274 71 -358 l21 -41 -28 -4 c-27 -4
-27 -4 3 -6 21 -1 33 -8 40 -23 15 -34 175 -78 175 -48 0 6 -8 10 -17 10 -10
0 -32 9 -49 19 -38 23 -77 120 -95 240 -15 97 -4 180 41 321 15 48 31 119 35
156 9 101 24 151 56 186 47 49 35 131 -16 119 -5 -2 -7 0 -3 4 3 4 -2 25 -13
48 -34 77 -20 166 35 216 24 23 36 71 18 71 -5 0 -27 -16 -50 -35z"/>
<path d="M1101 716 c-15 -59 -13 -142 4 -186 12 -32 14 -25 14 98 1 72 -1 132
-3 132 -2 0 -9 -20 -15 -44z"/>
<path d="M803 493 c9 -2 23 -2 30 0 6 3 -1 5 -18 5 -16 0 -22 -2 -12 -5z"/>
<path d="M718 483 c6 -2 18 -2 25 0 6 3 1 5 -13 5 -14 0 -19 -2 -12 -5z"/>
<path d="M658 473 c6 -2 18 -2 25 0 6 3 1 5 -13 5 -14 0 -19 -2 -12 -5z"/>
<path d="M598 463 c6 -2 18 -2 25 0 6 3 1 5 -13 5 -14 0 -19 -2 -12 -5z"/>
<path d="M548 453 c7 -3 16 -2 19 1 4 3 -2 6 -13 5 -11 0 -14 -3 -6 -6z"/>
<path d="M498 443 c7 -3 16 -2 19 1 4 3 -2 6 -13 5 -11 0 -14 -3 -6 -6z"/>
<path d="M458 433 c7 -3 16 -2 19 1 4 3 -2 6 -13 5 -11 0 -14 -3 -6 -6z"/>
<path d="M418 423 c7 -3 16 -2 19 1 4 3 -2 6 -13 5 -11 0 -14 -3 -6 -6z"/>
<path d="M653 135 c0 -27 2 -38 4 -22 2 15 2 37 0 50 -2 12 -4 0 -4 -28z"/>
<path d="M543 125 c0 -27 2 -38 4 -22 2 15 2 37 0 50 -2 12 -4 0 -4 -28z"/>
<path d="M385 140 c-2 -4 9 -7 25 -8 17 0 30 2 30 6 0 10 -49 12 -55 2z"/>
<path d="M624 141 c3 -5 -1 -11 -9 -15 -21 -8 -19 -38 3 -34 19 4 31 58 12 58
-6 0 -9 -4 -6 -9z m6 -31 c0 -5 -4 -10 -10 -10 -5 0 -10 5 -10 10 0 6 5 10 10
10 6 0 10 -4 10 -10z"/>
<path d="M671 122 c-1 -27 2 -33 17 -30 10 2 18 14 20 31 2 25 2 25 -4 2 -7
-33 -22 -32 -27 3 -4 25 -4 24 -6 -6z"/>
<path d="M720 120 c0 -39 6 -39 12 0 3 17 1 30 -4 30 -4 0 -8 -13 -8 -30z"/>
<path d="M764 141 c18 -7 18 -8 3 -14 -23 -9 -22 -39 1 -35 10 2 18 14 20 31
3 23 0 27 -20 26 -21 0 -21 -1 -4 -8z m16 -31 c0 -5 -4 -10 -10 -10 -5 0 -10
5 -10 10 0 6 5 10 10 10 6 0 10 -4 10 -10z"/>
<path d="M420 104 c0 -8 5 -12 10 -9 6 4 8 11 5 16 -9 14 -15 11 -15 -7z"/>
<path d="M450 94 c0 -8 5 -12 10 -9 6 3 10 10 10 16 0 5 -4 9 -10 9 -5 0 -10
-7 -10 -16z"/>
</g>
</svg>
